<svg width="220" height="24" viewBox="0 0 220 24" fill="none" xmlns="http://www.w3.org/2000/svg">
<path d="M0 5.47862V4.65627H6.41728V5.47862H0Z" fill="#4C4C4C"/>
<path d="M7.91047 5.47862V4.65627H14.3278V5.47862H7.91047Z" fill="#4C4C4C"/>
<path d="M15.8209 5.47862V4.65627H22.2382V5.47862H15.8209Z" fill="#4C4C4C"/>
<path d="M23.7314 5.47862V4.65627H30.1487V5.47862H23.7314Z" fill="#4C4C4C"/>
<path d="M31.6419 5.47862V4.65627H38.0592V5.47862H31.6419Z" fill="#4C4C4C"/>
<path d="M39.5524 5.47862V4.65627H45.9696V5.47862H39.5524Z" fill="#4C4C4C"/>
<path d="M47.4628 5.47862V4.65627H53.8801V5.47862H47.4628Z" fill="#4C4C4C"/>
<path d="M55.3733 5.47862V4.65627H61.7906V5.47862H55.3733Z" fill="#4C4C4C"/>
<path d="M63.2838 5.47862V4.65627H69.7011V5.47862H63.2838Z" fill="#4C4C4C"/>
<path d="M71.1943 5.47862V4.65627H77.6115V5.47862H71.1943Z" fill="#4C4C4C"/>
<path d="M79.1047 5.47862V4.65627H85.522V5.47862H79.1047Z" fill="#4C4C4C"/>
<path d="M87.0152 5.47862V4.65627H93.4325V5.47862H87.0152Z" fill="#4C4C4C"/>
<path d="M99.6103 9.97932L95.8883 0H96.6583L100.38 9.97932H99.6103Z" fill="#4C4C4C"/>
<path d="M103.745 5.50085V4.61182L108.344 1.84473V2.76709L104.547 5.00077V5.08967L108.344 7.32335V8.26794L103.745 5.50085Z" fill="#4C4C4C"/>
<path d="M111.656 7.34558L115.453 5.1119V5.023L111.656 2.78932V1.84473L116.255 4.61182V5.50085L111.656 8.26794V7.34558Z" fill="#4C4C4C"/>
<path d="M119.62 9.97932L123.342 0H124.112L120.39 9.97932H119.62Z" fill="#4C4C4C"/>
<path d="M126.568 5.47862V4.65627H132.985V5.47862H126.568Z" fill="#4C4C4C"/>
<path d="M134.478 5.47862V4.65627H140.895V5.47862H134.478Z" fill="#4C4C4C"/>
<path d="M142.389 5.47862V4.65627H148.806V5.47862H142.389Z" fill="#4C4C4C"/>
<path d="M150.299 5.47862V4.65627H156.716V5.47862H150.299Z" fill="#4C4C4C"/>
<path d="M158.209 5.47862V4.65627H164.627V5.47862H158.209Z" fill="#4C4C4C"/>
<path d="M166.12 5.47862V4.65627H172.537V5.47862H166.12Z" fill="#4C4C4C"/>
<path d="M174.03 5.47862V4.65627H180.448V5.47862H174.03Z" fill="#4C4C4C"/>
<path d="M181.941 5.47862V4.65627H188.358V5.47862H181.941Z" fill="#4C4C4C"/>
<path d="M189.851 5.47862V4.65627H196.269V5.47862H189.851Z" fill="#4C4C4C"/>
<path d="M197.762 5.47862V4.65627H204.179V5.47862H197.762Z" fill="#4C4C4C"/>
<path d="M205.672 5.47862V4.65627H212.09V5.47862H205.672Z" fill="#4C4C4C"/>
<path d="M213.583 5.47862V4.65627H220V5.47862H213.583Z" fill="#4C4C4C"/>
<path d="M63.2838 24V23.1777H69.7011V24H63.2838Z" fill="#4C4C4C"/>
<path d="M71.1943 24V23.1777H77.6115V24H71.1943Z" fill="#4C4C4C"/>
<path d="M79.1047 24V23.1777H85.522V24H79.1047Z" fill="#4C4C4C"/>
<path d="M87.0152 24V23.1777H93.4325V24H87.0152Z" fill="#4C4C4C"/>
<path d="M94.9257 24V23.1777H101.343V24H94.9257Z" fill="#4C4C4C"/>
<path d="M102.836 24V23.1777H109.253V24H102.836Z" fill="#4C4C4C"/>
<path d="M110.747 24V23.1777H117.164V24H110.747Z" fill="#4C4C4C"/>
<path d="M118.657 24V23.1777H125.074V24H118.657Z" fill="#4C4C4C"/>
<path d="M126.568 24V23.1777H132.985V24H126.568Z" fill="#4C4C4C"/>
<path d="M134.478 24V23.1777H140.895V24H134.478Z" fill="#4C4C4C"/>
<path d="M142.388 24V23.1777H148.806V24H142.388Z" fill="#4C4C4C"/>
<path d="M150.299 24V23.1777H156.716V24H150.299Z" fill="#4C4C4C"/>
</svg>
